<svg width="1440" height="951" viewBox="0 0 1440 951" fill="none" xmlns="http://www.w3.org/2000/svg">
<line y1="950.871" x2="1440" y2="950.871" stroke="white" stroke-opacity="0.3" stroke-width="0.2"/>
<line y1="900.871" x2="1440" y2="900.871" stroke="white" stroke-opacity="0.3" stroke-width="0.2"/>
<line y1="850.871" x2="1440" y2="850.871" stroke="white" stroke-opacity="0.3" stroke-width="0.2"/>
<line y1="800.871" x2="1440" y2="800.871" stroke="white" stroke-opacity="0.3" stroke-width="0.2"/>
<line y1="750.871" x2="1440" y2="750.871" stroke="white" stroke-opacity="0.3" stroke-width="0.2"/>
<line y1="700.871" x2="1440" y2="700.871" stroke="white" stroke-opacity="0.3" stroke-width="0.2"/>
<line y1="650.871" x2="1440" y2="650.871" stroke="white" stroke-opacity="0.3" stroke-width="0.2"/>
<line y1="600.871" x2="1440" y2="600.871" stroke="white" stroke-opacity="0.3" stroke-width="0.2"/>
<line y1="550.871" x2="1440" y2="550.871" stroke="white" stroke-opacity="0.3" stroke-width="0.2"/>
<line y1="500.871" x2="1440" y2="500.871" stroke="white" stroke-opacity="0.3" stroke-width="0.2"/>
<line y1="450.871" x2="1440" y2="450.871" stroke="white" stroke-opacity="0.3" stroke-width="0.2"/>
<line y1="400.871" x2="1440" y2="400.871" stroke="white" stroke-opacity="0.3" stroke-width="0.2"/>
<line y1="350.871" x2="1440" y2="350.871" stroke="white" stroke-opacity="0.3" stroke-width="0.2"/>
<line y1="300.871" x2="1440" y2="300.871" stroke="white" stroke-opacity="0.3" stroke-width="0.2"/>
<line y1="250.871" x2="1440" y2="250.871" stroke="white" stroke-opacity="0.3" stroke-width="0.2"/>
<line y1="200.871" x2="1440" y2="200.871" stroke="white" stroke-opacity="0.3" stroke-width="0.2"/>
<line y1="150.871" x2="1440" y2="150.871" stroke="white" stroke-opacity="0.3" stroke-width="0.2"/>
<line y1="100.871" x2="1440" y2="100.871" stroke="white" stroke-opacity="0.3" stroke-width="0.2"/>
<line y1="50.8707" x2="1440" y2="50.8707" stroke="white" stroke-opacity="0.3" stroke-width="0.2"/>
<line y1="0.870703" x2="1440" y2="0.870703" stroke="white" stroke-opacity="0.3" stroke-width="0.2"/>
</svg>
