<svg width="115" height="114" viewBox="0 0 115 114" fill="none" xmlns="http://www.w3.org/2000/svg">
<path d="M45.7583 98.5334C43.1019 97.8197 41.0968 98.8633 40.4584 101.239L40.4346 101.328L42.1318 101.784L42.1556 101.695C42.5917 100.072 43.5307 99.5805 45.3902 100.08C47.4415 100.631 48.0022 101.842 47.3123 104.41C46.6224 106.978 45.5303 107.744 43.479 107.193C41.6195 106.694 41.0533 105.798 41.4894 104.175L41.5132 104.086L39.8161 103.63L39.7923 103.719C39.1539 106.095 40.366 108.002 43.0224 108.716C45.9001 109.489 48.1807 107.95 49.0094 104.866C49.8381 101.782 48.636 99.3066 45.7583 98.5334Z" fill="white"/>
<path d="M36.1192 94.8342L33.8126 98.5464C33.0545 99.7664 32.2611 99.8851 31.1189 99.1754C29.9378 98.4415 29.8727 97.7354 30.5905 96.5803L32.9133 92.8422L31.5115 91.9712L28.9871 96.0337C28.108 97.4485 28.1364 98.9953 29.8237 100.044C30.9919 100.77 32.0669 100.574 32.7283 100.175L32.7803 100.208L30.7156 103.53L32.1174 104.401L37.5209 95.7053L36.1192 94.8342Z" fill="white"/>
<path d="M25.4965 86.2209C24.1123 84.7119 22.4498 84.3915 21.3012 85.4451L21.1998 85.538L22.3051 86.743L22.3951 86.6603C22.9019 86.1955 23.5477 86.2666 24.4051 87.2013C25.4794 88.3724 25.3022 89.2192 24.3188 90.2042L20.5898 86.139C20.3899 86.2602 20.0549 86.5053 19.7621 86.7738C18.2306 88.1786 18.3007 90.0635 19.6848 91.5725C21.2136 93.2392 23.3351 93.2009 25.0693 91.6102C26.8147 90.0091 27.1905 88.0677 25.4965 86.2209ZM20.7303 90.6551C19.8523 89.6979 19.7825 88.808 20.781 87.975L23.4977 90.9367C22.5686 91.6645 21.7012 91.7136 20.7303 90.6551Z" fill="white"/>
<path d="M18.982 76.8993C18.0424 75.0799 16.291 74.4194 14.6889 75.2468L14.5667 75.3099L15.317 76.7627L15.3984 76.7206C16.3896 76.2087 17.0905 76.5003 17.6725 77.6272C18.3457 78.9306 17.8855 79.8046 16.4192 80.5619C14.9528 81.3192 13.9602 81.1955 13.2871 79.8921C12.7051 78.7652 12.8867 78.0178 13.8778 77.506L13.9593 77.4639L13.209 76.0111L13.0868 76.0742C11.4711 76.9087 11.0024 78.6986 11.921 80.4772C13.0149 82.5953 15.065 83.1015 17.1695 82.0147C19.2603 80.9348 20.0689 79.0037 18.982 76.8993Z" fill="white"/>
<path d="M15.3469 67.9824L12.3137 68.6326L11.9966 67.1534L14.6134 64.5607L14.2098 62.6781L10.8396 66.0574L6.77423 64.2252L7.18102 66.1228L10.5505 67.479L10.8644 68.9433L5.33605 70.1284L5.68198 71.7421L15.6928 69.596L15.3469 67.9824Z" fill="white"/>
<path d="M14.9711 48.9108C15.4192 46.6317 14.131 44.9457 11.8069 44.4888C9.49787 44.0348 7.66728 45.1076 7.21919 47.3867C6.76815 49.6808 8.04747 51.4118 10.3565 51.8658C12.6806 52.3227 14.52 51.2049 14.9711 48.9108ZM13.5316 48.6278C13.2221 50.2022 12.3483 50.6066 10.669 50.2764C9.00469 49.9492 8.34907 49.2441 8.65861 47.6697C8.9652 46.1103 9.83602 45.7209 11.5003 46.0481C13.1797 46.3783 13.8382 47.0684 13.5316 48.6278Z" fill="white"/>
<path d="M18.3184 38.7607C18.9852 37.4369 18.64 36.3561 18.0271 35.6367L18.0546 35.5821L19.4057 36.2628L20.0932 34.8981L13.3106 31.4811L12.5681 32.955L16.3893 34.88C17.7267 35.5538 17.8948 36.4427 17.3242 37.5754C16.7329 38.7491 15.9942 38.9587 14.7796 38.3468L10.8493 36.3667L10.1068 37.8406L14.2964 39.9513C15.8385 40.7282 17.4246 40.5348 18.3184 38.7607Z" fill="white"/>
<path d="M25.0442 28.4166C25.3834 28.023 25.6762 27.5895 25.8278 27.2966L24.8091 26.4187L24.2006 27.1249C23.5323 27.9005 23.2087 28.0654 22.6067 27.5467L19.7243 25.0628L21.2206 23.3264L20.1787 22.4287L18.6824 24.1651L17.2586 22.9381L16.4307 23.8989L17.6251 25.3921L16.7772 26.3761L17.819 27.2738L18.647 26.313L21.5873 28.8467C22.8838 29.964 23.937 29.7015 25.0442 28.4166Z" fill="white"/>
<path d="M35.3303 19.7779L33.5262 15.7303C32.9663 14.4741 33.2852 13.7632 34.4297 13.253C35.6859 12.6931 36.2929 13.0416 36.8466 14.2838L38.6382 18.3035L40.1456 17.6316L38.3477 13.598C37.7816 12.3278 38.1005 11.6169 39.245 11.1068C40.5012 10.5469 41.1082 10.8953 41.6619 12.1375L43.4535 16.1573L44.9609 15.4854L43.0199 11.1307C42.317 9.5535 41.0113 8.7636 39.2247 9.55989C37.8569 10.1696 37.4624 11.1987 37.4648 12.0675L37.423 12.0862C36.6961 11.3562 35.6935 11.1338 34.4792 11.6751C33.1533 12.2661 32.7386 13.2874 32.7473 14.1702L32.6914 14.1951L32.1129 12.8971L30.7311 13.513L33.8229 20.4498L35.3303 19.7779Z" fill="white"/>
<path d="M51.1824 17.1545C52.3694 17.0464 53.068 16.6299 53.509 15.2394L56.3145 6.45239L54.5035 6.61736L53.4528 10.4111L52.9786 12.1114L52.8568 12.1225L52.0223 10.5414L50.1664 7.01246L48.3555 7.17743L52.2374 14.2504L52.0065 14.9159C51.8143 15.5012 51.5958 15.6285 50.9414 15.6881L49.9066 15.7824L50.0286 17.1216C50.2942 17.1741 50.7715 17.192 51.1824 17.1545Z" fill="white"/>
<path d="M70.2207 16.2135L73.0107 12.7459L74.1466 11.1343L74.2609 11.1777L74.0533 13.1424L73.82 17.5822L75.8197 18.3426L80.2759 11.912L78.6762 11.3036L76.3433 14.945L75.3515 16.6932L75.2372 16.6498L75.5006 14.6246L75.7482 10.1902L73.7485 9.42978L71.0068 12.8994L69.8239 14.5912L69.7097 14.5478L70.1355 12.5681L70.8205 8.31633L69.1493 7.68085L68.2067 15.4476L70.2207 16.2135Z" fill="white"/>
<path d="M83.8896 23.8277C85.6988 25.2844 87.7905 24.9281 89.2759 23.0832C90.7516 21.2502 90.6532 19.1306 88.844 17.674C87.0229 16.2078 84.8955 16.5353 83.4197 18.3683C81.9343 20.2133 82.0685 22.3615 83.8896 23.8277ZM84.8096 22.6851C83.5598 21.6789 83.6081 20.7173 84.6814 19.3841C85.7451 18.0629 86.6742 17.8105 87.924 18.8167C89.1619 19.8133 89.1017 20.7654 88.038 22.0866C86.9647 23.4197 86.0474 23.6817 84.8096 22.6851Z" fill="white"/>
<path d="M90.7396 30.4984L94.7067 27.5362C95.5149 26.9328 96.0404 26.9981 96.6347 27.7939C97.2106 28.5653 97.0905 29.0174 96.2824 29.6208L96.0375 29.8037L97.0249 31.126L97.4289 30.8243C98.5677 29.9741 99.1325 28.7895 98.1817 27.5161C97.5143 26.6222 96.604 26.4247 95.8579 26.6004L95.8122 26.5391L96.7794 25.8169L95.8743 24.6047L89.7522 29.176L90.7396 30.4984Z" fill="white"/>
<path d="M96.0901 39.1699L98.9594 37.9911L99.5343 39.3904L97.4199 42.4067L98.1515 44.1877L100.868 40.2634L105.194 41.3441L104.456 39.549L100.9 38.813L100.331 37.4278L105.56 35.2793L104.933 33.7527L95.463 37.6433L96.0901 39.1699Z" fill="white"/>
<path d="M99.4894 51.6148C99.7414 53.5236 100.705 54.5215 102.099 54.3376C103.341 54.1736 103.893 53.3301 103.989 51.8378L104.063 50.5332C104.135 49.4447 104.266 49.15 104.842 49.074C105.417 48.9981 105.773 49.2439 105.931 50.4407C106.109 51.789 105.641 52.0974 104.945 52.1894L104.763 52.2134L104.969 53.7738L105.105 53.7558C106.817 53.5298 107.52 52.0807 107.286 50.3082C107.026 48.3387 105.969 47.3377 104.605 47.5176C103.242 47.6976 102.748 48.626 102.683 50.0063L102.641 51.1988C102.59 52.3307 102.456 52.7183 101.85 52.7983C101.289 52.8723 100.987 52.681 100.827 51.4691C100.637 50.0299 100.892 49.6263 101.71 49.5183L101.982 49.4823L101.774 47.9067L101.744 47.9107C99.911 48.1527 99.1995 49.4181 99.4894 51.6148Z" fill="white"/>
<path d="M99.014 66.6517L100.22 66.9909L100.204 67.0497C99.2512 67.1629 98.5112 67.8755 98.1555 69.1406C97.5806 71.1854 98.7521 72.7211 101.076 73.3746C103.386 74.0239 105.17 73.3825 105.736 71.3671C106.1 70.0726 105.689 69.0521 105.118 68.5423L105.126 68.5129L108.833 69.5551L109.28 67.9664L99.4234 65.1954L99.014 66.6517ZM101.978 67.6278L103.287 67.9959C104.508 68.3392 104.883 69.2066 104.523 70.4864C104.13 71.8839 103.314 72.3051 101.519 71.8005C99.7095 71.2918 99.2277 70.5214 99.6247 69.1092C99.9845 67.8294 100.757 67.2846 101.978 67.6278Z" fill="white"/>
<path d="M93.6586 79.3837C92.5943 81.133 92.749 82.8191 94.0805 83.6293L94.198 83.7008L95.0479 82.3039L94.9435 82.2404C94.356 81.883 94.2447 81.2428 94.9039 80.1593C95.73 78.8016 96.5926 78.7362 97.8124 79.4068L94.9449 84.1195C95.1169 84.2778 95.4456 84.5314 95.785 84.7379C97.5604 85.8182 99.3514 85.2265 100.416 83.4772C101.591 81.5451 100.964 79.518 98.954 78.2948C96.9306 77.0637 94.9613 77.2428 93.6586 79.3837ZM99.2437 82.7283C98.5685 83.8379 97.7332 84.1524 96.6553 83.4251L98.7443 79.9918C99.7019 80.6817 99.9903 81.5011 99.2437 82.7283Z" fill="white"/>
<path d="M87.856 87.1524L95.3035 94.1779L96.436 92.9774L88.9885 85.9519L87.856 87.1524Z" fill="white"/>
<path d="M81.3612 92.4428C79.4506 93.7637 79.198 95.8704 80.5449 97.8187C81.8832 99.7544 83.9434 100.262 85.8539 98.9413C87.7771 97.6117 88.0674 95.4789 86.7291 93.5432C85.3822 91.5949 83.2843 91.1133 81.3612 92.4428ZM82.1954 93.6495C83.5152 92.7371 84.4235 93.0566 85.3968 94.4644C86.3614 95.8596 86.3395 96.8222 85.0197 97.7346C83.7125 98.6384 82.8168 98.3102 81.8522 96.9149C80.8789 95.5072 80.8882 94.5533 82.1954 93.6495Z" fill="white"/>
<path d="M71.4448 97.7541L71.3392 102.203L71.4177 104.174L71.3006 104.209L70.2704 102.523L67.7552 98.8568L65.7055 99.4695L66.0795 107.284L67.7193 106.794L67.3563 102.485L67.0803 100.494L67.1974 100.459L68.2202 102.227L70.7207 105.897L72.7705 105.284L72.8365 100.863L72.7464 98.8005L72.8635 98.7655L73.7296 100.596L75.7719 104.387L77.4849 103.875L73.5092 97.1371L71.4448 97.7541Z" fill="white"/>
<path d="M64.027 50.1733L62.411 48.5574L57.1505 53.8064L51.89 48.5574L50.274 50.1733L57.1505 57.0498L64.027 50.1733Z" fill="white"/>
<path d="M64.027 57.7261L62.411 56.1101L57.1505 61.3591L51.89 56.1101L50.274 57.7261L57.1505 64.6025L64.027 57.7261Z" fill="white"/>
</svg>
