<svg width="1351" height="1024" viewBox="0 0 1351 1024" fill="none" xmlns="http://www.w3.org/2000/svg">
<line x1="950.9" y1="1024" x2="950.9" stroke="white" stroke-opacity="0.3" stroke-width="0.2"/>
<line x1="1000.9" y1="1024" x2="1000.9" stroke="white" stroke-opacity="0.3" stroke-width="0.2"/>
<line x1="1050.9" y1="1024" x2="1050.9" stroke="white" stroke-opacity="0.3" stroke-width="0.2"/>
<line x1="1100.9" y1="1024" x2="1100.9" stroke="white" stroke-opacity="0.3" stroke-width="0.2"/>
<line x1="1150.9" y1="1024" x2="1150.9" stroke="white" stroke-opacity="0.3" stroke-width="0.2"/>
<line x1="1200.9" y1="1024" x2="1200.9" stroke="white" stroke-opacity="0.3" stroke-width="0.2"/>
<line x1="1250.9" y1="1024" x2="1250.9" stroke="white" stroke-opacity="0.3" stroke-width="0.2"/>
<line x1="1300.9" y1="1024" x2="1300.9" stroke="white" stroke-opacity="0.3" stroke-width="0.2"/>
<line x1="1350.9" y1="1024" x2="1350.9" stroke="white" stroke-opacity="0.3" stroke-width="0.2"/>
<line x1="900.9" y1="1024" x2="900.9" stroke="white" stroke-opacity="0.3" stroke-width="0.2"/>
<line x1="850.9" y1="1024" x2="850.9" stroke="white" stroke-opacity="0.3" stroke-width="0.2"/>
<line x1="800.9" y1="1024" x2="800.9" stroke="white" stroke-opacity="0.3" stroke-width="0.2"/>
<line x1="750.9" y1="1024" x2="750.9" stroke="white" stroke-opacity="0.3" stroke-width="0.2"/>
<line x1="700.9" y1="1024" x2="700.9" stroke="white" stroke-opacity="0.3" stroke-width="0.2"/>
<line x1="650.9" y1="1024" x2="650.9" stroke="white" stroke-opacity="0.3" stroke-width="0.2"/>
<line x1="600.9" y1="1024" x2="600.9" stroke="white" stroke-opacity="0.3" stroke-width="0.2"/>
<line x1="550.9" y1="1024" x2="550.9" stroke="white" stroke-opacity="0.3" stroke-width="0.2"/>
<line x1="500.9" y1="1024" x2="500.9" stroke="white" stroke-opacity="0.3" stroke-width="0.2"/>
<line x1="450.9" y1="1024" x2="450.9" stroke="white" stroke-opacity="0.3" stroke-width="0.2"/>
<line x1="400.9" y1="1024" x2="400.9" stroke="white" stroke-opacity="0.3" stroke-width="0.2"/>
<line x1="350.9" y1="1024" x2="350.9" stroke="white" stroke-opacity="0.3" stroke-width="0.2"/>
<line x1="300.9" y1="1024" x2="300.9" stroke="white" stroke-opacity="0.3" stroke-width="0.2"/>
<line x1="250.9" y1="1024" x2="250.9" stroke="white" stroke-opacity="0.3" stroke-width="0.2"/>
<line x1="200.9" y1="1024" x2="200.9" stroke="white" stroke-opacity="0.3" stroke-width="0.2"/>
<line x1="150.9" y1="1024" x2="150.9" stroke="white" stroke-opacity="0.3" stroke-width="0.2"/>
<line x1="100.9" y1="1024" x2="100.9" stroke="white" stroke-opacity="0.3" stroke-width="0.2"/>
<line x1="50.9" y1="1024" x2="50.9" stroke="white" stroke-opacity="0.3" stroke-width="0.2"/>
<line x1="0.9" y1="1024" x2="0.9" stroke="white" stroke-opacity="0.3" stroke-width="0.2"/>
</svg>
