<svg width="293" height="300" viewBox="0 0 293 300" fill="none" xmlns="http://www.w3.org/2000/svg">
<path opacity="0.0344828" d="M37.8526 70.2842C39.1185 68.7756 41.0622 67.7933 43.738 67.392C46.4222 66.9894 49.7796 67.1833 53.7532 67.9775C61.6995 69.5658 71.9022 73.5111 83.6832 79.5044C107.231 91.4835 136.883 111.541 167.038 136.844C197.194 162.148 222.095 187.867 237.981 208.976C245.929 219.537 251.587 228.9 254.531 236.45C256.003 240.225 256.777 243.498 256.846 246.211C256.916 248.916 256.286 251.001 255.02 252.509C253.754 254.018 251.81 255 249.135 255.402C246.45 255.804 243.093 255.61 239.119 254.816C231.173 253.228 220.97 249.282 209.189 243.289C185.642 231.31 155.99 211.253 125.834 185.949C95.6786 160.646 70.7772 134.927 54.8911 113.818C46.9431 103.256 41.286 93.8936 38.342 86.3438C36.8699 82.5685 36.0959 79.2958 36.0263 76.5825C35.9569 73.8776 36.5867 71.7929 37.8526 70.2842Z" stroke="#2B2B2B" stroke-width="2"/>
<path opacity="0.0689655" d="M46.2067 60.028C47.5993 58.6354 49.6212 57.8263 52.3219 57.6597C55.0309 57.4926 58.3586 57.9784 62.2479 59.1159C70.0255 61.3907 79.8456 66.2102 91.0594 73.2075C113.473 87.1933 141.264 109.758 169.1 137.594C196.935 165.43 219.5 193.221 233.486 215.634C240.484 226.848 245.303 236.668 247.578 244.446C248.715 248.335 249.201 251.663 249.034 254.372C248.867 257.073 248.058 259.094 246.666 260.487C245.273 261.88 243.251 262.689 240.551 262.855C237.842 263.022 234.514 262.537 230.625 261.399C222.847 259.124 213.027 254.305 201.813 247.308C179.399 233.322 151.608 210.757 123.773 182.921C95.9372 155.085 73.372 127.294 59.3862 104.881C52.3889 93.6669 47.5694 83.8468 45.2946 76.0692C44.1571 72.1799 43.6713 68.8521 43.8384 66.1431C44.005 63.4425 44.8142 61.4206 46.2067 60.028Z" stroke="#2B2B2B" stroke-width="2"/>
<path opacity="0.103448" d="M55.3237 50.534C56.8324 49.2681 58.9171 48.6383 61.622 48.7077C64.3352 48.7773 67.6079 49.5513 71.3833 51.0235C78.933 53.9675 88.2957 59.6245 98.857 67.5725C119.966 83.4586 145.685 108.36 170.989 138.516C196.292 168.671 216.349 198.323 228.329 221.871C234.322 233.652 238.267 243.854 239.855 251.801C240.65 255.774 240.844 259.132 240.441 261.816C240.04 264.492 239.057 266.435 237.549 267.701C236.04 268.967 233.955 269.597 231.25 269.528C228.537 269.458 225.265 268.684 221.489 267.212C213.939 264.268 204.577 258.611 194.015 250.663C172.906 234.777 147.187 209.875 121.884 179.72C96.5801 149.564 76.523 119.912 64.5438 96.3646C58.5505 84.5837 54.6053 74.3809 53.017 66.4346C52.2228 62.461 52.0288 59.1036 52.4314 56.4194C52.8328 53.7436 53.815 51.7999 55.3237 50.534Z" stroke="#2B2B2B" stroke-width="2"/>
<path opacity="0.137931" d="M65.1341 41.8665C66.7473 40.7369 68.879 40.2912 71.5676 40.5961C74.2644 40.9019 77.4572 41.9582 81.0899 43.7538C88.3544 47.3446 97.1884 53.7961 107.017 62.6343C126.661 80.2998 150.112 107.348 172.691 139.594C195.27 171.841 212.666 203.128 222.548 227.63C227.491 239.888 230.532 250.396 231.422 258.45C231.867 262.478 231.768 265.84 231.133 268.478C230.5 271.109 229.352 272.96 227.738 274.089C226.125 275.219 223.993 275.665 221.305 275.36C218.608 275.054 215.415 273.998 211.783 272.202C204.518 268.611 195.684 262.16 185.856 253.322C166.211 235.656 142.761 208.608 120.182 176.362C97.6025 144.115 80.206 112.828 70.3247 88.3263C65.381 76.0678 62.34 65.56 61.4503 57.5056C61.0055 53.4778 61.1049 50.1163 61.7399 47.4775C62.3729 44.8468 63.5208 42.9961 65.1341 41.8665Z" stroke="#2B2B2B" stroke-width="2"/>
<path opacity="0.172414" d="M75.5632 34.0828C77.2688 33.0981 79.4312 32.8399 82.0829 33.3779C84.7429 33.9176 87.8315 35.2482 91.2938 37.3536C98.2177 41.5638 106.456 48.7607 115.476 58.4219C133.507 77.7323 154.51 106.721 174.193 140.813C193.876 174.904 208.479 207.589 216.187 232.859C220.044 245.501 222.158 256.234 222.342 264.335C222.434 268.387 222.042 271.727 221.179 274.3C220.32 276.866 219.015 278.609 217.309 279.594C215.604 280.579 213.441 280.837 210.789 280.299C208.129 279.759 205.041 278.429 201.578 276.323C194.655 272.113 186.417 264.916 177.396 255.255C159.366 235.945 138.362 206.955 118.679 172.864C98.9965 138.772 84.3931 106.088 76.6848 80.8182C72.8284 68.1755 70.7147 57.4427 70.5304 49.3413C70.4383 45.2901 70.8303 41.9501 71.6929 39.3766C72.5528 36.8111 73.8576 35.0675 75.5632 34.0828Z" stroke="#2B2B2B" stroke-width="2"/>
<path opacity="0.206897" d="M86.5318 27.2332C88.3167 26.4009 90.4934 26.3321 93.0882 27.0992C95.691 27.8687 98.6519 29.4634 101.918 31.8625C108.448 36.6602 116.028 44.5477 124.172 54.9583C140.45 75.7667 158.848 106.476 175.484 142.153C192.121 177.831 203.82 211.663 209.297 237.509C212.036 250.439 213.207 261.316 212.684 269.402C212.423 273.446 211.741 276.739 210.658 279.228C209.577 281.709 208.126 283.332 206.341 284.164C204.556 284.996 202.379 285.065 199.784 284.298C197.182 283.529 194.221 281.934 190.955 279.535C184.424 274.737 176.845 266.85 168.701 256.439C152.422 235.631 134.025 204.921 117.388 169.244C100.752 133.567 89.0524 99.734 83.576 73.8885C80.836 60.9578 79.6659 50.0816 80.1884 41.995C80.4496 37.9512 81.1313 34.658 82.2149 32.1695C83.2951 29.6888 84.7469 28.0655 86.5318 27.2332Z" stroke="#2B2B2B" stroke-width="2"/>
<path opacity="0.241379" d="M97.9562 21.361C99.8069 20.6874 101.981 20.8086 104.499 21.7989C107.025 22.7924 109.836 24.639 112.88 27.3136C118.967 32.6623 125.831 41.1804 133.037 52.2612C147.44 74.4091 163.09 106.605 176.554 143.597C190.018 180.588 198.724 215.312 201.927 241.536C203.53 254.656 203.747 265.593 202.522 273.603C201.909 277.609 200.943 280.83 199.647 283.215C198.355 285.592 196.767 287.083 194.916 287.756C193.066 288.43 190.891 288.309 188.373 287.318C185.847 286.325 183.037 284.478 179.992 281.804C173.905 276.455 167.042 267.937 159.836 256.856C145.433 234.708 129.782 202.512 116.318 165.521C102.854 128.529 94.1484 93.8056 90.9453 67.5812C89.3428 54.4609 89.125 43.524 90.3503 35.5138C90.963 31.5081 91.9291 28.2869 93.2254 25.9023C94.5178 23.5251 96.1056 22.0346 97.9562 21.361Z" stroke="#2B2B2B" stroke-width="2"/>
<path opacity="0.275862" d="M109.75 16.5036C111.652 15.9939 113.808 16.3041 116.23 17.5101C118.659 18.7199 121.298 20.8045 124.098 23.7342C129.696 29.5931 135.791 38.6769 142.003 50.3436C154.421 73.6626 167.207 107.1 177.395 145.124C187.584 183.148 193.23 218.499 194.135 244.902C194.588 258.113 193.852 269.027 191.933 276.9C190.974 280.837 189.731 283.961 188.231 286.224C186.737 288.48 185.025 289.826 183.123 290.336C181.22 290.845 179.065 290.535 176.643 289.329C174.213 288.119 171.574 286.035 168.775 283.105C163.176 277.246 157.082 268.162 150.869 256.496C138.451 233.177 125.666 199.739 115.477 161.715C105.289 123.691 99.6423 88.3406 98.7371 61.9368C98.2842 48.7268 99.0204 37.8126 100.939 29.9396C101.899 26.0026 103.142 22.8778 104.641 20.6153C106.136 18.3598 107.847 17.0133 109.75 16.5036Z" stroke="#2B2B2B" stroke-width="2"/>
<path opacity="0.310345" d="M121.822 12.6875C123.762 12.3455 125.882 12.8425 128.19 14.255C130.505 15.6719 132.952 17.9786 135.485 21.1412C140.552 27.4657 145.832 37.0461 151.004 49.2099C161.342 73.5224 171.164 107.947 178 146.714C184.836 185.482 187.38 221.19 185.98 247.572C185.28 260.771 183.596 271.58 180.998 279.256C179.699 283.094 178.188 286.098 176.497 288.222C174.812 290.338 172.989 291.531 171.05 291.873C169.11 292.214 166.99 291.718 164.682 290.305C162.367 288.888 159.92 286.581 157.387 283.419C152.32 277.094 147.041 267.514 141.868 255.35C131.53 231.038 121.708 196.613 114.872 157.846C108.036 119.078 105.492 83.3703 106.892 56.9881C107.592 43.7888 109.277 32.9803 111.874 25.3045C113.173 21.4661 114.684 18.4616 116.375 16.3383C118.06 14.2217 119.883 13.0295 121.822 12.6875Z" stroke="#2B2B2B" stroke-width="2"/>
<path opacity="0.344828" d="M134.082 9.93377C136.044 9.76213 138.113 10.442 140.289 12.0503C142.472 13.6636 144.709 16.1747 146.957 19.5461C151.453 26.2881 155.877 36.2922 159.97 48.8605C168.15 73.9816 174.934 109.131 178.365 148.347C181.796 187.563 181.218 223.356 177.525 249.516C175.677 262.604 173.057 273.225 169.8 280.645C168.171 284.355 166.404 287.217 164.535 289.185C162.672 291.146 160.752 292.175 158.79 292.347C156.828 292.519 154.759 291.839 152.583 290.23C150.401 288.617 148.164 286.106 145.916 282.735C141.42 275.993 136.995 265.988 132.903 253.42C124.723 228.299 117.938 193.149 114.507 153.934C111.076 114.718 111.654 78.9243 115.348 52.7645C117.195 39.6764 119.816 29.0559 123.072 21.6357C124.701 17.9251 126.468 15.0637 128.337 13.0959C130.201 11.1342 132.12 10.1054 134.082 9.93377Z" stroke="#2B2B2B" stroke-width="2"/>
<path opacity="0.37931" d="M146.436 8.25436C148.406 8.25436 150.407 9.11194 152.435 10.9037C154.469 12.7011 156.478 15.3977 158.424 18.9522C162.315 26.0603 165.851 36.4121 168.833 49.2892C174.792 75.0276 178.487 110.635 178.487 150C178.487 189.366 174.792 224.973 168.833 250.711C165.851 263.589 162.315 273.94 158.424 281.048C156.478 284.603 154.469 287.299 152.435 289.097C150.407 290.889 148.406 291.746 146.436 291.746C144.467 291.746 142.465 290.889 140.438 289.097C138.404 287.299 136.394 284.603 134.448 281.048C130.557 273.94 127.021 263.589 124.04 250.711C118.081 224.973 114.385 189.366 114.385 150C114.385 110.635 118.081 75.0276 124.04 49.2892C127.021 36.4121 130.557 26.0603 134.448 18.9522C136.394 15.3977 138.404 12.7011 140.438 10.9037C142.465 9.11194 144.467 8.25436 146.436 8.25436Z" stroke="#2B2B2B" stroke-width="2"/>
<path opacity="0.413793" d="M158.79 7.65367C160.752 7.82532 162.672 8.8541 164.535 10.8158C166.405 12.7836 168.171 15.645 169.8 19.3556C173.057 26.7758 175.677 37.3963 177.525 50.4844C181.218 76.6442 181.796 112.438 178.365 151.654C174.934 190.869 168.15 226.019 159.97 251.14C155.877 263.708 151.453 273.712 146.957 280.454C144.709 283.826 142.472 286.337 140.289 287.95C138.113 289.559 136.044 290.238 134.082 290.067C132.12 289.895 130.201 288.866 128.337 286.905C126.468 284.937 124.701 282.075 123.073 278.365C119.816 270.945 117.195 260.324 115.348 247.236C111.654 221.076 111.076 185.282 114.507 146.067C117.938 106.851 124.723 71.7015 132.903 46.5804C136.995 34.0121 141.42 24.008 145.916 17.266C148.164 13.8946 150.401 11.3835 152.583 9.77015C154.759 8.16187 156.828 7.48203 158.79 7.65367Z" stroke="#2B2B2B" stroke-width="2"/>
<path opacity="0.448276" d="M171.05 8.12804C172.99 8.47003 174.812 9.66219 176.498 11.7788C178.188 13.9021 179.699 16.9066 180.998 20.745C183.596 28.4208 185.28 39.2293 185.981 52.4286C187.38 78.8108 184.836 114.519 178 153.286C171.165 192.054 161.342 226.478 151.004 250.791C145.832 262.954 140.552 272.535 135.486 278.859C132.952 282.022 130.505 284.329 128.19 285.746C125.882 287.158 123.762 287.655 121.822 287.313C119.883 286.971 118.06 285.779 116.375 283.662C114.684 281.539 113.173 278.534 111.874 274.696C109.277 267.02 107.592 256.212 106.892 243.012C105.492 216.63 108.036 180.922 114.872 142.155C121.708 103.388 131.53 68.9629 141.868 44.6504C147.041 32.4866 152.321 22.9062 157.387 16.5817C159.92 13.4191 162.368 11.1124 164.683 9.69551C166.99 8.28298 169.111 7.78605 171.05 8.12804Z" stroke="#2B2B2B" stroke-width="2"/>
<path opacity="0.482759" d="M183.123 9.66523C185.025 10.175 186.737 11.5214 188.231 13.7769C189.731 16.0394 190.974 19.1642 191.933 23.1012C193.852 30.9742 194.588 41.8884 194.135 55.0985C193.23 81.5022 187.584 116.853 177.395 154.877C167.206 192.901 154.421 226.338 142.003 249.657C135.791 261.324 129.696 270.408 124.098 276.267C121.298 279.196 118.659 281.281 116.23 282.491C113.808 283.697 111.652 284.007 109.75 283.497C107.847 282.988 106.136 281.641 104.641 279.386C103.142 277.123 101.899 273.998 100.939 270.061C99.0204 262.188 98.2841 251.274 98.737 238.064C99.6423 211.66 105.289 176.31 115.477 138.286C125.666 100.262 138.451 66.8242 150.869 43.5053C157.082 31.8386 163.176 22.7547 168.775 16.8959C171.574 13.9661 174.213 11.8815 176.643 10.6718C179.065 9.46575 181.22 9.15551 183.123 9.66523Z" stroke="#2B2B2B" stroke-width="2"/>
<path opacity="0.517241" d="M194.916 12.2439C196.767 12.9174 198.355 14.408 199.647 16.7851C200.943 19.1697 201.909 22.391 202.522 26.3966C203.747 34.4069 203.53 45.3437 201.927 58.464C198.724 84.6884 190.018 119.412 176.554 156.404C163.09 193.395 147.44 225.591 133.037 247.739C125.831 258.82 118.967 267.338 112.88 272.686C109.836 275.361 107.025 277.208 104.499 278.201C101.981 279.191 99.8069 279.313 97.9563 278.639C96.1056 277.965 94.5178 276.475 93.2255 274.098C91.9292 271.713 90.9631 268.492 90.3504 264.486C89.1251 256.476 89.3428 245.539 90.9454 232.419C94.1484 206.195 102.854 171.471 116.318 134.479C129.782 97.488 145.433 65.292 159.836 43.144C167.042 32.0632 173.905 23.5451 179.993 18.1965C183.037 15.5219 185.847 13.6752 188.373 12.6818C190.891 11.6915 193.066 11.5703 194.916 12.2439Z" stroke="#2B2B2B" stroke-width="2"/>
<path opacity="0.551724" d="M206.341 15.8366C208.126 16.6689 209.577 18.2921 210.658 20.7729C211.741 23.2614 212.423 26.5545 212.684 30.5983C213.207 38.6849 212.036 49.5612 209.297 62.4919C203.82 88.3373 192.121 122.17 175.484 157.847C158.848 193.525 140.45 224.234 124.172 245.042C116.028 255.453 108.448 263.34 101.918 268.138C98.6518 270.537 95.6909 272.132 93.0881 272.901C90.4934 273.669 88.3167 273.6 86.5318 272.767C84.7469 271.935 83.295 270.312 82.2148 267.831C81.1312 265.343 80.4496 262.049 80.1883 258.006C79.6658 249.919 80.836 239.043 83.5759 226.112C89.0524 200.267 100.752 166.434 117.388 130.757C134.025 95.0795 152.422 64.37 168.701 43.5617C176.845 33.1511 184.424 25.2636 190.955 20.4659C194.221 18.0667 197.182 16.4721 199.784 15.7026C202.379 14.9355 204.556 15.0042 206.341 15.8366Z" stroke="#2B2B2B" stroke-width="2"/>
<path opacity="0.586207" d="M217.309 20.4066C219.015 21.3913 220.32 23.1349 221.179 25.7004C222.042 28.2738 222.434 31.6139 222.342 35.6651C222.158 43.7664 220.044 54.4993 216.187 67.142C208.479 92.4118 193.876 125.096 174.193 159.188C154.51 193.279 133.507 222.268 115.476 241.579C106.456 251.24 98.2177 258.437 91.2938 262.647C87.8315 264.752 84.7429 266.083 82.0829 266.623C79.4312 267.161 77.2688 266.902 75.5632 265.918C73.8576 264.933 72.5528 263.189 71.6929 260.624C70.8303 258.051 70.4383 254.71 70.5304 250.659C70.7147 242.558 72.8284 231.825 76.6849 219.182C84.3931 193.913 98.9965 161.228 118.679 127.137C138.362 93.0452 159.366 64.0561 177.396 44.7457C186.417 35.0845 194.655 27.8876 201.579 23.6773C205.041 21.5719 208.129 20.2414 210.789 19.7017C213.441 19.1637 215.604 19.4219 217.309 20.4066Z" stroke="#2B2B2B" stroke-width="2"/>
<path opacity="0.62069" d="M227.738 25.9113C229.352 27.0409 230.499 28.8916 231.132 31.5222C231.767 34.161 231.867 37.5226 231.422 41.5503C230.532 49.6048 227.491 60.1126 222.548 72.3711C212.666 96.8729 195.27 128.16 172.691 160.406C150.112 192.653 126.661 219.701 107.017 237.366C97.1883 246.205 88.3543 252.656 81.0899 256.247C77.4572 258.043 74.2644 259.099 71.5675 259.405C68.879 259.71 66.7473 259.264 65.134 258.134C63.5208 257.005 62.3728 255.154 61.7398 252.523C61.1048 249.884 61.0054 246.523 61.4503 242.495C62.3399 234.441 65.381 223.933 70.3247 211.674C80.2059 187.173 97.6024 155.885 120.182 123.639C142.761 91.3928 166.211 64.3445 185.856 46.6791C195.684 37.8408 204.518 31.3893 211.782 27.7985C215.415 26.0029 218.608 24.9466 221.305 24.6408C223.993 24.3359 226.125 24.7816 227.738 25.9113Z" stroke="#2B2B2B" stroke-width="2"/>
<path opacity="0.655172" d="M237.549 32.299C239.057 33.5649 240.04 35.5086 240.441 38.1844C240.844 40.8686 240.65 44.226 239.855 48.1996C238.267 56.1459 234.322 66.3487 228.329 78.1296C216.349 101.677 196.292 131.329 170.989 161.485C145.685 191.64 119.966 216.542 98.857 232.428C88.2957 240.376 78.9331 246.033 71.3833 248.977C67.608 250.449 64.3352 251.223 61.622 251.293C58.9171 251.362 56.8324 250.732 55.3237 249.466C53.815 248.2 52.8328 246.257 52.4314 243.581C52.0289 240.897 52.2228 237.539 53.017 233.566C54.6053 225.619 58.5506 215.417 64.5438 203.636C76.523 180.088 96.5801 150.436 121.884 120.281C147.187 90.125 172.906 65.2236 194.015 49.3375C204.577 41.3895 213.939 35.7325 221.489 32.7885C225.265 31.3163 228.537 30.5423 231.251 30.4727C233.955 30.4033 236.04 31.0331 237.549 32.299Z" stroke="#2B2B2B" stroke-width="2"/>
<path opacity="0.689655" d="M246.666 39.5136C248.058 40.9062 248.867 42.9281 249.034 45.6287C249.201 48.3378 248.715 51.6655 247.578 55.5548C245.303 63.3324 240.484 73.1525 233.486 84.3663C219.5 106.78 196.935 134.571 169.1 162.407C141.264 190.242 113.473 212.807 91.0593 226.793C79.8455 233.79 70.0254 238.61 62.2478 240.885C58.3585 242.022 55.0308 242.508 52.3218 242.341C49.6212 242.174 47.5993 241.365 46.2067 239.973C44.8141 238.58 44.005 236.558 43.8384 233.858C43.6713 231.149 44.1571 227.821 45.2946 223.932C47.5694 216.154 52.3889 206.334 59.3861 195.12C73.372 172.706 95.9372 144.915 123.773 117.08C151.608 89.2441 179.399 66.6789 201.813 52.6931C213.027 45.6958 222.847 40.8763 230.625 38.6015C234.514 37.464 237.842 36.9782 240.551 37.1453C243.251 37.3119 245.273 38.121 246.666 39.5136Z" stroke="#2B2B2B" stroke-width="2"/>
<path opacity="0.724138" d="M255.02 47.4909C256.286 48.9996 256.916 51.0843 256.846 53.7892C256.777 56.5025 256.003 59.7752 254.53 63.5505C251.586 71.1003 245.929 80.463 237.981 91.0242C222.095 112.134 197.194 137.852 167.038 163.156C136.882 188.46 107.23 208.517 83.6831 220.496C71.9022 226.489 61.6994 230.434 53.7531 232.023C49.7795 232.817 46.4221 233.011 43.738 232.608C41.0621 232.207 39.1184 231.225 37.8525 229.716C36.5866 228.207 35.9568 226.123 36.0262 223.418C36.0958 220.704 36.8698 217.432 38.342 213.656C41.286 206.107 46.943 196.744 54.891 186.183C70.7771 165.073 95.6785 139.355 125.834 114.051C155.99 88.7474 185.642 68.6902 209.189 56.7111C220.97 50.7178 231.173 46.7725 239.119 45.1842C243.093 44.39 246.45 44.1961 249.134 44.5987C251.81 45 253.754 45.9823 255.02 47.4909Z" stroke="#2B2B2B" stroke-width="2"/>
<path opacity="0.758621" d="M262.548 56.1614C263.677 57.7747 264.123 59.9064 263.818 62.5949C263.512 65.2918 262.456 68.4846 260.66 72.1173C257.07 79.3817 250.618 88.2157 241.78 98.0441C224.114 117.689 197.066 141.139 164.82 163.718C132.574 186.297 101.286 203.694 76.7846 213.575C64.5261 218.519 54.0183 221.56 45.9639 222.449C41.9361 222.894 38.5746 222.795 35.9358 222.16C33.3051 221.527 31.4544 220.379 30.3248 218.766C29.1952 217.152 28.7495 215.021 29.0543 212.332C29.3602 209.635 30.4165 206.443 32.2121 202.81C35.8029 195.545 42.2544 186.711 51.0926 176.883C68.7581 157.238 95.8063 133.788 128.053 111.209C160.299 88.6299 191.586 71.2334 216.088 61.3521C228.346 56.4084 238.854 53.3673 246.909 52.4777C250.936 52.0328 254.298 52.1322 256.937 52.7672C259.567 53.4003 261.418 54.5482 262.548 56.1614Z" stroke="#2B2B2B" stroke-width="2"/>
<path opacity="0.793103" d="M269.192 65.451C270.176 67.1566 270.435 69.319 269.897 71.9707C269.357 74.6307 268.026 77.7193 265.921 81.1816C261.711 88.1055 254.514 96.3436 244.853 105.364C225.542 123.394 196.553 144.398 162.462 164.081C128.37 183.764 95.6858 198.367 70.416 206.075C57.7733 209.932 47.0405 212.045 38.9391 212.23C34.8879 212.322 31.5479 211.93 28.9744 211.067C26.4089 210.207 24.6653 208.903 23.6806 207.197C22.6959 205.491 22.4377 203.329 22.9757 200.677C23.5154 198.017 24.846 194.929 26.9514 191.466C31.1616 184.542 38.3585 176.304 48.0197 167.284C67.3301 149.254 96.3192 128.25 130.411 108.567C164.502 88.8843 197.187 74.2809 222.456 66.5727C235.099 62.7162 245.832 60.6025 253.933 60.4182C257.984 60.3261 261.325 60.7181 263.898 61.5807C266.463 62.4406 268.207 63.7454 269.192 65.451Z" stroke="#2B2B2B" stroke-width="2"/>
<path opacity="0.827586" d="M274.902 75.2798C275.734 77.0647 275.803 79.2414 275.036 81.8361C274.266 84.4389 272.671 87.3998 270.272 90.6655C265.475 97.196 257.587 104.776 247.176 112.92C226.368 129.198 195.659 147.596 159.981 164.232C124.304 180.869 90.4715 192.568 64.6261 198.044C51.6953 200.784 40.8191 201.955 32.7325 201.432C28.6887 201.171 25.3955 200.489 22.9071 199.406C20.4263 198.325 18.8031 196.874 17.9707 195.089C17.1384 193.304 17.0696 191.127 17.8367 188.532C18.6062 185.929 20.2009 182.969 22.6001 179.703C27.3977 173.172 35.2852 165.593 45.6959 157.449C66.5042 141.17 97.2136 122.773 132.891 106.136C168.568 89.4996 202.401 77.8004 228.246 72.3239C241.177 69.584 252.053 68.4138 260.14 68.9363C264.184 69.1976 267.477 69.8792 269.965 70.9628C272.446 72.043 274.069 73.4949 274.902 75.2798Z" stroke="#2B2B2B" stroke-width="2"/>
<path opacity="0.862069" d="M279.634 85.5646C280.307 87.4153 280.186 89.5897 279.196 92.1077C278.202 94.6335 276.356 97.4441 273.681 100.488C268.333 106.576 259.814 113.439 248.734 120.645C226.586 135.048 194.39 150.699 157.398 164.163C120.407 177.626 85.6831 186.332 59.4588 189.535C46.3384 191.138 35.4016 191.356 27.3913 190.13C23.3857 189.518 20.1644 188.552 17.7799 187.255C15.4027 185.963 13.9122 184.375 13.2386 182.525C12.565 180.674 12.6862 178.499 13.6765 175.981C14.6699 173.456 16.5166 170.645 19.1912 167.601C24.5399 161.513 33.0579 154.65 44.1388 147.444C66.2867 133.041 98.4827 117.39 135.474 103.927C172.466 90.4628 207.189 81.7568 233.414 78.5537C246.534 76.9512 257.471 76.7334 265.481 77.9587C269.487 78.5714 272.708 79.5375 275.093 80.8338C277.47 82.1262 278.96 83.714 279.634 85.5646Z" stroke="#2B2B2B" stroke-width="2"/>
<path opacity="0.896552" d="M283.352 96.2184C283.862 98.1207 283.552 100.276 282.346 102.698C281.136 105.128 279.051 107.767 276.122 110.566C270.263 116.165 261.179 122.259 249.512 128.472C226.193 140.89 192.756 153.675 154.732 163.864C116.707 174.052 81.3571 179.699 54.9534 180.604C41.7433 181.057 30.8291 180.321 22.9561 178.402C19.0191 177.442 15.8943 176.199 13.6318 174.7C11.3763 173.205 10.0299 171.494 9.52014 169.591C9.01042 167.689 9.32065 165.534 10.5267 163.111C11.7365 160.682 13.821 158.043 16.7508 155.243C22.6096 149.645 31.6935 143.55 43.3602 137.338C66.6791 124.92 100.117 112.135 138.141 101.946C176.165 91.7576 211.515 86.1111 237.919 85.2058C251.129 84.7529 262.043 85.4891 269.916 87.4079C273.853 88.3674 276.978 89.6106 279.241 91.1098C281.496 92.6044 282.843 94.3161 283.352 96.2184Z" stroke="#2B2B2B" stroke-width="2"/>
<path opacity="0.931035" d="M286.029 107.151C286.371 109.091 285.874 111.211 284.461 113.519C283.044 115.834 280.738 118.281 277.575 120.815C271.251 125.881 261.67 131.161 249.506 136.333C225.194 146.671 190.769 156.493 152.002 163.329C113.234 170.165 77.5264 172.709 51.1442 171.31C37.9449 170.609 27.1365 168.925 19.4607 166.327C15.6223 165.028 12.6177 163.517 10.4945 161.827C8.37782 160.141 7.18566 158.319 6.84367 156.379C6.50169 154.44 6.99862 152.319 8.41116 150.011C9.82808 147.697 12.1347 145.249 15.2974 142.716C21.6218 137.65 31.2023 132.37 43.3661 127.197C67.6786 116.859 102.103 107.037 140.871 100.201C179.638 93.3654 215.346 90.8214 241.728 92.2208C254.927 92.921 265.736 94.6056 273.412 97.2033C277.25 98.5023 280.255 100.013 282.378 101.704C284.495 103.389 285.687 105.212 286.029 107.151Z" stroke="#2B2B2B" stroke-width="2"/>
<path opacity="0.965517" d="M287.643 118.272C287.814 120.234 287.135 122.303 285.526 124.479C283.913 126.661 281.402 128.898 278.03 131.146C271.288 135.642 261.284 140.067 248.716 144.159C223.595 152.339 188.445 159.124 149.23 162.555C110.014 165.986 74.2202 165.408 48.0604 161.714C34.9723 159.867 24.3518 157.246 16.9316 153.99C13.2211 152.361 10.3596 150.594 8.39181 148.725C6.43011 146.861 5.40133 144.942 5.22968 142.98C5.05803 141.018 5.73787 138.949 7.34617 136.773C8.95946 134.59 11.4706 132.353 14.842 130.105C21.584 125.609 31.5881 121.185 44.1564 117.092C69.2775 108.912 104.427 102.128 143.643 98.6968C182.858 95.2659 218.652 95.8437 244.812 99.5371C257.9 101.385 268.521 104.005 275.941 107.262C279.651 108.891 282.513 110.658 284.481 112.527C286.442 114.39 287.471 116.31 287.643 118.272Z" stroke="#2B2B2B" stroke-width="2"/>
<path d="M288.182 129.486C288.182 131.455 287.325 133.457 285.533 135.485C283.735 137.518 281.039 139.528 277.484 141.474C270.376 145.365 260.024 148.901 247.147 151.882C221.409 157.842 185.802 161.537 146.436 161.537C107.071 161.537 71.4635 157.842 45.7252 151.882C32.848 148.901 22.4963 145.365 15.3882 141.474C11.8337 139.528 9.13708 137.518 7.3397 135.485C5.54788 133.457 4.69031 131.455 4.69031 129.486C4.69031 127.516 5.54788 125.515 7.3397 123.487C9.13708 121.453 11.8337 119.444 15.3882 117.498C22.4963 113.607 32.848 110.071 45.7252 107.09C71.4635 101.13 107.071 97.4349 146.436 97.4349C185.802 97.4349 221.409 101.13 247.147 107.09C260.024 110.071 270.376 113.607 277.484 117.498C281.039 119.444 283.735 121.453 285.533 123.487C287.325 125.515 288.182 127.516 288.182 129.486Z" stroke="#2B2B2B" stroke-width="2"/>
</svg>
