<svg width="115" height="114" viewBox="0 0 115 114" fill="none" xmlns="http://www.w3.org/2000/svg">
<path d="M45.7583 98.5334C43.102 97.8197 41.0969 98.8633 40.4585 101.239L40.4347 101.328L42.1318 101.784L42.1556 101.695C42.5918 100.072 43.5308 99.5805 45.3902 100.08C47.4415 100.631 48.0023 101.842 47.3124 104.41C46.6225 106.978 45.5304 107.744 43.4791 107.193C41.6196 106.694 41.0533 105.798 41.4895 104.175L41.5133 104.086L39.8161 103.63L39.7924 103.719C39.154 106.095 40.366 108.002 43.0224 108.716C45.9002 109.489 48.1808 107.95 49.0095 104.866C49.8382 101.782 48.6361 99.3066 45.7583 98.5334Z" fill="#2B2B2B"/>
<path d="M36.1192 94.8342L33.8126 98.5463C33.0545 99.7664 32.2611 99.8851 31.1189 99.1753C29.9378 98.4414 29.8728 97.7354 30.5906 96.5802L32.9133 92.8421L31.5115 91.9711L28.9872 96.0337C28.1081 97.4484 28.1364 98.9952 29.8237 100.044C30.9919 100.77 32.0669 100.574 32.7284 100.175L32.7803 100.208L30.7157 103.53L32.1174 104.401L37.521 95.7052L36.1192 94.8342Z" fill="#2B2B2B"/>
<path d="M25.4965 86.2209C24.1123 84.7119 22.4498 84.3914 21.3012 85.445L21.1998 85.538L22.3051 86.7429L22.3951 86.6603C22.9019 86.1955 23.5477 86.2666 24.4051 87.2013C25.4794 88.3724 25.3022 89.2192 24.3188 90.2042L20.5898 86.139C20.3899 86.2601 20.0549 86.5052 19.7621 86.7738C18.2306 88.1786 18.3007 90.0635 19.6848 91.5725C21.2136 93.2391 23.3351 93.2009 25.0693 91.6101C26.8147 90.0091 27.1905 88.0677 25.4965 86.2209ZM20.7303 90.655C19.8523 89.6978 19.7825 88.808 20.781 87.975L23.4977 90.9367C22.5686 91.6645 21.7012 91.7136 20.7303 90.655Z" fill="#2B2B2B"/>
<path d="M18.9821 76.8992C18.0424 75.0799 16.291 74.4193 14.6889 75.2468L14.5667 75.3099L15.317 76.7626L15.3985 76.7206C16.3896 76.2087 17.0905 76.5002 17.6725 77.6271C18.3457 78.9305 17.8855 79.8045 16.4192 80.5618C14.9529 81.3191 13.9602 81.1954 13.2871 79.892C12.7051 78.7651 12.8867 78.0178 13.8778 77.5059L13.9593 77.4638L13.209 76.0111L13.0868 76.0742C11.4711 76.9086 11.0024 78.6985 11.921 80.4772C13.0149 82.5952 15.065 83.1015 17.1695 82.0146C19.2604 80.9347 20.0689 79.0037 18.9821 76.8992Z" fill="#2B2B2B"/>
<path d="M15.3469 67.9823L12.3137 68.6325L11.9966 67.1533L14.6134 64.5607L14.2098 62.6781L10.8396 66.0573L6.77423 64.2252L7.18102 66.1227L10.5505 67.479L10.8644 68.9432L5.33605 70.1284L5.68198 71.742L15.6928 69.596L15.3469 67.9823Z" fill="#2B2B2B"/>
<path d="M14.9711 48.9108C15.4192 46.6317 14.131 44.9457 11.8069 44.4887C9.49787 44.0347 7.66728 45.1076 7.21919 47.3867C6.76815 49.6808 8.04747 51.4118 10.3565 51.8658C12.6806 52.3227 14.52 51.2049 14.9711 48.9108ZM13.5316 48.6278C13.2221 50.2021 12.3483 50.6066 10.669 50.2764C9.00469 49.9492 8.34907 49.2441 8.65861 47.6697C8.9652 46.1103 9.83602 45.7209 11.5003 46.0481C13.1797 46.3783 13.8382 47.0684 13.5316 48.6278Z" fill="#2B2B2B"/>
<path d="M18.3184 38.7607C18.9853 37.4369 18.64 36.3561 18.0272 35.6367L18.0547 35.5821L19.4057 36.2628L20.0932 34.8981L13.3107 31.4811L12.5682 32.955L16.3893 34.88C17.7267 35.5538 17.8949 36.4427 17.3243 37.5754C16.733 38.7491 15.9943 38.9587 14.7797 38.3468L10.8494 36.3667L10.1068 37.8406L14.2965 39.9513C15.8386 40.7282 17.4246 40.5348 18.3184 38.7607Z" fill="#2B2B2B"/>
<path d="M25.0442 28.4167C25.3833 28.0231 25.6762 27.5896 25.8278 27.2966L24.8091 26.4188L24.2006 27.1249C23.5322 27.9005 23.2086 28.0654 22.6067 27.5467L19.7242 25.0629L21.2205 23.3265L20.1787 22.4287L18.6824 24.1651L17.2585 22.9382L16.4306 23.899L17.625 25.3922L16.7771 26.3761L17.819 27.2739L18.6469 26.3131L21.5872 28.8468C22.8837 29.964 23.9369 29.7016 25.0442 28.4167Z" fill="#2B2B2B"/>
<path d="M35.3303 19.7779L33.5262 15.7302C32.9663 14.4741 33.2852 13.7631 34.4297 13.253C35.6859 12.6931 36.2929 13.0416 36.8466 14.2838L38.6382 18.3035L40.1456 17.6316L38.3477 13.5979C37.7816 12.3278 38.1005 11.6169 39.245 11.1067C40.5012 10.5468 41.1082 10.8953 41.6619 12.1375L43.4535 16.1572L44.9609 15.4853L43.0199 11.1307C42.317 9.55347 41.0113 8.76357 39.2247 9.55986C37.8569 10.1695 37.4624 11.1986 37.4648 12.0675L37.423 12.0862C36.6961 11.3561 35.6935 11.1338 34.4792 11.675C33.1533 12.266 32.7386 13.2874 32.7473 14.1702L32.6914 14.1951L32.1129 12.8971L30.7311 13.5129L33.8229 20.4497L35.3303 19.7779Z" fill="#2B2B2B"/>
<path d="M51.1824 17.1545C52.3694 17.0464 53.068 16.6298 53.5091 15.2393L56.3145 6.45235L54.5036 6.61732L53.4529 10.411L52.9786 12.1114L52.8569 12.1225L52.0224 10.5413L50.1665 7.01242L48.3555 7.17739L52.2375 14.2504L52.0066 14.9159C51.8144 15.5011 51.5958 15.6284 50.9414 15.6881L49.9066 15.7823L50.0286 17.1215C50.2943 17.174 50.7716 17.1919 51.1824 17.1545Z" fill="#2B2B2B"/>
<path d="M70.2207 16.2135L73.0107 12.7459L74.1466 11.1343L74.2609 11.1778L74.0533 13.1424L73.82 17.5822L75.8197 18.3426L80.2759 11.912L78.6762 11.3036L76.3433 14.9451L75.3515 16.6932L75.2372 16.6498L75.5006 14.6246L75.7482 10.1902L73.7485 9.42979L71.0068 12.8994L69.8239 14.5913L69.7097 14.5478L70.1355 12.5681L70.8205 8.31634L69.1493 7.68086L68.2067 15.4477L70.2207 16.2135Z" fill="#2B2B2B"/>
<path d="M83.8895 23.8277C85.6987 25.2843 87.7904 24.9281 89.2758 23.0832C90.7516 21.2502 90.6532 19.1306 88.8439 17.674C87.0228 16.2078 84.8954 16.5353 83.4196 18.3683C81.9343 20.2133 82.0684 22.3615 83.8895 23.8277ZM84.8095 22.6851C83.5597 21.6789 83.608 20.7172 84.6813 19.3841C85.745 18.0629 86.6742 17.8105 87.924 18.8167C89.1619 19.8133 89.1016 20.7653 88.0379 22.0865C86.9646 23.4196 86.0474 23.6817 84.8095 22.6851Z" fill="#2B2B2B"/>
<path d="M90.7395 30.4984L94.7067 27.5362C95.5148 26.9328 96.0403 26.9981 96.6346 27.794C97.2106 28.5654 97.0904 29.0174 96.2823 29.6208L96.0374 29.8037L97.0248 31.1261L97.4289 30.8244C98.5676 29.9741 99.1325 28.7895 98.1816 27.5161C97.5142 26.6223 96.6039 26.4247 95.8578 26.6004L95.8121 26.5392L96.7794 25.8169L95.8743 24.6047L89.7521 29.176L90.7395 30.4984Z" fill="#2B2B2B"/>
<path d="M96.0901 39.1698L98.9594 37.991L99.5343 39.3904L97.4199 42.4067L98.1515 44.1877L100.868 40.2634L105.194 41.3441L104.456 39.5489L100.9 38.813L100.331 37.4278L105.56 35.2792L104.933 33.7527L95.463 37.6433L96.0901 39.1698Z" fill="#2B2B2B"/>
<path d="M99.4894 51.6147C99.7414 53.5236 100.705 54.5215 102.099 54.3375C103.341 54.1736 103.893 53.3301 103.989 51.8377L104.063 50.5332C104.135 49.4447 104.266 49.15 104.842 49.074C105.417 48.998 105.773 49.2439 105.931 50.4407C106.109 51.789 105.641 52.0974 104.945 52.1894L104.763 52.2134L104.969 53.7738L105.105 53.7558C106.817 53.5298 107.52 52.0807 107.286 50.3082C107.026 48.3387 105.969 47.3376 104.605 47.5176C103.242 47.6976 102.748 48.6259 102.683 50.0063L102.641 51.1988C102.59 52.3307 102.456 52.7183 101.85 52.7983C101.289 52.8723 100.987 52.681 100.827 51.469C100.637 50.0298 100.892 49.6262 101.71 49.5183L101.982 49.4823L101.774 47.9067L101.744 47.9107C99.911 48.1527 99.1994 49.418 99.4894 51.6147Z" fill="#2B2B2B"/>
<path d="M99.0139 66.6517L100.22 66.9909L100.204 67.0497C99.2512 67.1629 98.5111 67.8755 98.1555 69.1406C97.5806 71.1854 98.752 72.7211 101.076 73.3746C103.386 74.0239 105.169 73.3825 105.736 71.3671C106.1 70.0726 105.688 69.0521 105.117 68.5423L105.126 68.5129L108.833 69.5551L109.28 67.9664L99.4234 65.1954L99.0139 66.6517ZM101.978 67.6278L103.287 67.9959C104.508 68.3392 104.883 69.2066 104.523 70.4864C104.13 71.8839 103.314 72.3051 101.519 71.8005C99.7094 71.2918 99.2276 70.5214 99.6246 69.1092C99.9845 67.8294 100.757 67.2846 101.978 67.6278Z" fill="#2B2B2B"/>
<path d="M93.6586 79.3837C92.5942 81.133 92.7489 82.8191 94.0805 83.6293L94.1979 83.7007L95.0478 82.3039L94.9434 82.2404C94.356 81.8829 94.2446 81.2428 94.9039 80.1593C95.7299 78.8016 96.5926 78.7362 97.8123 79.4068L94.9449 84.1194C95.1169 84.2777 95.4455 84.5314 95.7849 84.7379C97.5603 85.8181 99.3513 85.2264 100.416 83.4771C101.591 81.5451 100.964 79.518 98.9539 78.2948C96.9305 77.0636 94.9612 77.2428 93.6586 79.3837ZM99.2436 82.7282C98.5685 83.8379 97.7331 84.1524 96.6553 83.425L98.7443 79.9917C99.7018 80.6817 99.9903 81.5011 99.2436 82.7282Z" fill="#2B2B2B"/>
<path d="M87.856 87.1524L95.3034 94.1779L96.4359 92.9774L88.9884 85.9519L87.856 87.1524Z" fill="#2B2B2B"/>
<path d="M81.3612 92.4428C79.4506 93.7637 79.198 95.8704 80.5449 97.8187C81.8832 99.7544 83.9434 100.262 85.8539 98.9412C87.7771 97.6117 88.0674 95.4789 86.7291 93.5432C85.3822 91.5949 83.2843 91.1132 81.3612 92.4428ZM82.1954 93.6495C83.5152 92.737 84.4235 93.0565 85.3968 94.4643C86.3614 95.8595 86.3395 96.8221 85.0197 97.7346C83.7125 98.6383 82.8168 98.3101 81.8522 96.9149C80.8789 95.5071 80.8882 94.5532 82.1954 93.6495Z" fill="#2B2B2B"/>
<path d="M71.4448 97.7541L71.3392 102.204L71.4177 104.174L71.3006 104.209L70.2704 102.523L67.7552 98.8569L65.7055 99.4695L66.0795 107.284L67.7193 106.794L67.3563 102.485L67.0803 100.494L67.1974 100.459L68.2202 102.227L70.7207 105.897L72.7705 105.285L72.8365 100.863L72.7464 98.8005L72.8635 98.7655L73.7296 100.596L75.7719 104.387L77.4849 103.875L73.5092 97.1371L71.4448 97.7541Z" fill="#2B2B2B"/>
<path d="M64.027 50.1733L62.411 48.5573L57.1505 53.8064L51.89 48.5573L50.2741 50.1733L57.1505 57.0498L64.027 50.1733Z" fill="#2B2B2B"/>
<path d="M64.027 57.726L62.411 56.11L57.1505 61.359L51.89 56.11L50.2741 57.726L57.1505 64.6024L64.027 57.726Z" fill="#2B2B2B"/>
</svg>
