<svg width="310" height="302" viewBox="0 0 310 302" fill="none" xmlns="http://www.w3.org/2000/svg">
<path opacity="0.0526316" d="M24.044 244.16C30.5737 252.847 51.4433 267.384 82.6841 256.034C121.735 241.847 136.838 204.241 171.692 184.741C197.417 170.349 266.54 148.746 306.286 172.618" stroke="#2B2B2B" stroke-width="3"/>
<path opacity="0.105263" d="M17.6033 225.947C23.1891 235.27 42.4249 251.908 74.6809 243.886C115.001 233.859 133.952 198.037 170.653 182.288C197.741 170.664 268.744 156.404 305.778 184.3" stroke="#2B2B2B" stroke-width="3"/>
<path opacity="0.157895" d="M12.7376 207.49C17.3184 217.345 34.7095 235.904 67.6274 231.297C108.775 225.539 131.367 191.895 169.513 180.068C197.668 171.339 269.772 164.579 303.687 196.193" stroke="#2B2B2B" stroke-width="3"/>
<path opacity="0.210526" d="M9.46387 188.953C12.9895 199.233 28.3455 219.507 61.5645 218.367C103.088 216.942 129.073 185.843 168.247 178.068C197.16 172.33 269.575 173.144 300 208.13" stroke="#2B2B2B" stroke-width="3"/>
<path opacity="0.263158" d="M7.78182 170.503C10.2136 181.095 23.3662 202.863 56.5224 205.202C97.9678 208.124 127.061 179.912 166.833 176.275C196.187 173.591 268.121 181.97 294.722 219.944" stroke="#2B2B2B" stroke-width="3"/>
<path opacity="0.315789" d="M7.67346 152.306C8.98473 163.094 19.7898 186.118 52.52 191.909C93.4328 199.148 125.316 174.132 165.25 174.672C194.724 175.07 265.388 190.923 287.873 231.47" stroke="#2B2B2B" stroke-width="3"/>
<path opacity="0.368421" d="M9.1037 134.524C9.28012 145.391 17.6193 169.418 49.5649 178.599C89.4969 190.075 123.82 168.528 163.479 173.239C192.75 176.716 261.369 199.869 279.494 242.544" stroke="#2B2B2B" stroke-width="3"/>
<path opacity="0.421053" d="M12.0208 117.318C11.0604 128.143 16.8424 152.911 47.6533 165.381C86.1669 180.968 122.554 163.127 161.503 171.958C190.25 178.475 256.074 208.673 269.639 253.009" stroke="#2B2B2B" stroke-width="3"/>
<path opacity="0.473684" d="M16.3564 100.839C14.2698 111.504 17.4312 136.74 46.7699 152.362C83.4432 171.89 121.496 157.95 159.309 170.804C187.217 180.291 249.524 217.204 258.379 262.715" stroke="#2B2B2B" stroke-width="3"/>
<path opacity="0.526316" d="M22.0268 85.2307C18.8368 95.6195 19.343 121.048 46.888 139.651C81.3193 162.905 120.621 153.019 156.883 169.755C183.647 182.107 241.753 225.331 245.803 271.518" stroke="#2B2B2B" stroke-width="3"/>
<path opacity="0.578947" d="M28.9338 70.6283C24.6753 80.6268 22.5207 105.969 47.9703 127.349C79.7822 154.075 119.902 148.352 154.216 168.786C179.542 183.868 232.812 232.929 232.012 279.287" stroke="#2B2B2B" stroke-width="3"/>
<path opacity="0.631579" d="M36.9651 57.1559C31.6848 66.6545 26.893 91.6325 49.9683 115.556C78.8124 145.461 119.311 143.962 151.3 167.871C174.911 185.518 222.762 239.878 217.12 285.899" stroke="#2B2B2B" stroke-width="3"/>
<path opacity="0.684211" d="M45.9966 44.9247C39.7524 53.8193 32.376 78.1596 52.8242 104.364C78.3844 137.12 118.817 139.863 148.133 166.985C169.77 187.003 211.676 246.067 201.255 291.246" stroke="#2B2B2B" stroke-width="3"/>
<path opacity="0.736842" d="M55.8933 34.0319C48.7535 42.225 38.8733 65.661 56.4703 93.8594C78.4666 129.107 118.391 136.062 144.711 166.1C164.137 188.27 199.64 251.391 184.553 295.232" stroke="#2B2B2B" stroke-width="3"/>
<path opacity="0.789474" d="M66.5103 24.5614C58.5532 31.9634 46.2773 54.2382 60.8304 84.1215C79.0218 121.476 118.001 132.565 141.037 165.19C158.039 189.269 186.749 255.755 167.162 297.78" stroke="#2B2B2B" stroke-width="3"/>
<path opacity="0.842105" d="M77.695 16.5801C69.0078 23.1098 54.4708 43.9794 65.8205 75.2202C80.0077 114.271 117.614 129.375 137.113 164.228C151.505 189.953 173.109 259.076 149.237 298.823" stroke="#2B2B2B" stroke-width="3"/>
<path opacity="0.894737" d="M89.2887 10.1395C79.9666 15.7254 63.3278 34.9611 71.3498 67.2172C81.3772 107.537 117.199 126.489 132.948 163.19C144.572 190.278 158.832 261.28 130.936 298.314" stroke="#2B2B2B" stroke-width="3"/>
<path opacity="0.947368" d="M101.128 5.27384C91.2732 9.85467 72.7149 27.2458 77.3212 60.1637C83.0792 101.311 116.724 123.903 128.55 162.049C137.279 190.204 144.039 262.308 112.425 296.223" stroke="#2B2B2B" stroke-width="3"/>
<path d="M113.047 2C102.767 5.52561 82.4929 20.8816 83.6332 54.1006C85.0585 95.6244 116.157 121.609 123.932 160.783C129.67 189.696 128.856 262.111 93.8698 292.536" stroke="#2B2B2B" stroke-width="3"/>
</svg>
