<svg width="601" height="601" viewBox="0 0 601 601" fill="none" xmlns="http://www.w3.org/2000/svg">
<path opacity="0.0344828" d="M115.798 297.406C100.017 291.053 102.441 267.997 119.197 265.064L208.563 249.422C218.305 247.717 224.936 238.59 223.547 228.799L210.808 138.973C208.419 122.13 229.598 112.701 240.516 125.746L298.745 195.318C305.093 202.902 316.312 204.081 324.097 197.983L395.519 142.038C408.911 131.547 427.666 145.174 421.828 161.152L390.691 246.367C387.297 255.655 391.886 265.961 401.06 269.654L485.221 303.534C501.002 309.887 498.578 332.943 481.821 335.876L392.455 351.518C382.714 353.223 376.083 362.35 377.472 372.141L390.211 461.967C392.6 478.81 371.421 488.239 360.503 475.194L302.273 405.622C295.926 398.038 284.707 396.859 276.922 402.957L205.5 458.903C192.108 469.393 173.352 455.766 179.191 439.788L210.327 354.574C213.721 345.285 209.133 334.979 199.959 331.286L115.798 297.406Z" stroke="#2B2B2B" stroke-width="1.4151"/>
<path opacity="0.0689655" d="M119.17 288.211C103.743 281.041 107.37 258.144 124.257 256.092L212.251 245.4C222.068 244.207 229.167 235.44 228.293 225.589L220.456 137.296C218.952 120.351 240.596 112.043 250.816 125.642L304.073 196.5C310.014 204.405 321.156 206.17 329.25 200.488L401.796 149.555C415.719 139.78 433.736 154.369 427.069 170.02L392.332 251.57C388.457 260.669 392.499 271.201 401.467 275.369L481.85 312.729C497.276 319.899 493.65 342.796 476.763 344.848L388.769 355.54C378.952 356.733 371.853 365.501 372.727 375.351L380.563 463.644C382.067 480.589 360.424 488.897 350.204 475.299L296.947 404.44C291.006 396.535 279.863 394.77 271.77 400.452L199.224 451.386C185.301 461.161 167.284 446.571 173.951 430.92L208.688 349.37C212.563 340.272 208.52 329.74 199.553 325.572L119.17 288.211Z" stroke="#2B2B2B" stroke-width="1.4151"/>
<path opacity="0.103448" d="M122.989 279.36C107.958 271.393 112.778 248.716 129.75 247.551L216.103 241.621C225.969 240.944 233.518 232.56 233.16 222.678L230.031 136.178C229.416 119.177 251.464 112.014 260.959 126.129L309.27 197.948C314.79 206.153 325.825 208.499 334.205 203.248L407.551 157.288C421.966 148.255 439.195 163.767 431.718 179.048L393.677 256.797C389.33 265.679 392.816 276.408 401.554 281.04L478.03 321.58C493.06 329.548 488.24 352.224 471.268 353.389L384.915 359.319C375.049 359.996 367.501 368.38 367.858 378.262L370.988 464.762C371.603 481.763 349.554 488.927 340.059 474.811L291.748 402.992C286.228 394.787 275.193 392.441 266.813 397.692L193.467 443.652C179.052 452.685 161.824 437.173 169.3 421.892L207.342 344.144C211.688 335.261 208.202 324.532 199.464 319.9L122.989 279.36Z" stroke="#2B2B2B" stroke-width="1.4151"/>
<path opacity="0.137931" d="M127.23 270.874C112.637 262.13 118.637 239.737 135.646 239.462L220.108 238.094C229.995 237.933 237.972 229.956 238.133 220.068L239.501 135.607C239.776 118.598 262.169 112.598 270.913 127.19L314.328 199.652C319.411 208.135 330.308 211.055 338.951 206.25L412.781 165.204C427.649 156.938 444.042 173.331 435.776 188.199L394.73 262.029C389.925 270.672 392.844 281.569 401.328 286.651L473.789 330.067C488.382 338.81 482.381 361.203 465.372 361.479L380.911 362.847C371.023 363.007 363.046 370.984 362.886 380.872L361.518 465.333C361.242 482.342 338.849 488.343 330.106 473.75L286.69 401.288C281.608 392.805 270.711 389.886 262.068 394.691L188.238 435.736C173.37 444.003 156.977 427.61 165.243 412.741L206.289 338.912C211.094 330.269 208.174 319.372 199.691 314.289L127.23 270.874Z" stroke="#2B2B2B" stroke-width="1.4151"/>
<path opacity="0.172414" d="M131.864 262.771C117.749 253.276 124.913 231.227 141.914 231.842L224.248 234.821C234.131 235.179 242.514 227.63 243.192 217.764L248.835 135.569C250.001 118.598 272.677 113.778 280.645 128.808L319.232 201.601C323.864 210.339 334.593 213.825 343.476 209.478L417.48 173.269C432.761 165.792 448.273 183.021 439.241 197.436L395.494 267.25C390.243 275.63 392.588 286.665 400.794 292.184L469.154 338.169C483.27 347.664 476.106 369.713 459.105 369.098L376.771 366.119C366.888 365.761 358.505 373.31 357.827 383.176L352.183 465.371C351.018 482.342 328.342 487.162 320.374 472.132L281.786 399.339C277.155 390.602 266.426 387.115 257.543 391.462L183.538 427.671C168.258 435.148 152.745 417.92 161.778 403.504L205.525 333.69C210.776 325.31 208.43 314.275 200.225 308.756L131.864 262.771Z" stroke="#2B2B2B" stroke-width="1.4151"/>
<path opacity="0.206897" d="M136.864 255.069C123.265 244.849 131.573 223.206 148.518 224.709L228.508 231.809C238.358 232.683 247.125 225.584 248.318 215.767L258.005 136.049C260.057 119.162 282.954 115.535 290.124 130.962L323.971 203.785C328.139 212.752 338.671 216.795 347.769 212.92L421.65 181.45C437.301 174.783 451.89 192.8 442.115 206.722L395.972 272.446C390.29 280.539 392.055 291.682 399.96 297.623L464.154 345.871C477.753 356.092 469.445 377.735 452.5 376.231L372.51 369.131C362.66 368.257 353.893 375.357 352.7 385.174L343.013 464.891C340.961 481.779 318.064 485.405 310.894 469.979L277.047 397.156C272.879 388.188 262.347 384.145 253.249 388.021L179.368 419.491C163.718 426.157 149.128 408.141 158.903 394.218L205.046 328.495C210.728 320.401 208.964 309.259 201.058 303.317L136.864 255.069Z" stroke="#2B2B2B" stroke-width="1.4151"/>
<path opacity="0.241379" d="M142.2 247.785C129.155 236.867 138.584 215.688 155.427 218.077L232.872 229.06C242.663 230.449 251.79 223.818 253.495 214.077L266.981 137.028C269.914 120.271 292.97 117.848 299.323 133.629L328.534 206.19C332.227 215.364 342.532 219.952 351.821 216.558L425.29 189.713C441.268 183.875 454.895 202.63 444.405 216.022L396.17 277.6C390.072 285.385 391.251 296.604 398.835 302.952L458.818 353.155C471.863 364.074 462.434 385.252 445.591 382.864L368.146 371.88C358.355 370.492 349.228 377.123 347.523 386.864L334.037 463.912C331.104 480.669 308.048 483.092 301.695 467.311L272.485 394.75C268.792 385.577 258.486 380.988 249.197 384.382L175.728 411.227C159.75 417.066 146.123 398.31 156.613 384.918L204.848 323.34C210.946 315.555 209.767 304.336 202.183 297.989L142.2 247.785Z" stroke="#2B2B2B" stroke-width="1.4151"/>
<path opacity="0.275862" d="M147.844 240.932C135.388 229.346 145.913 208.69 162.608 211.957L237.326 226.578C247.031 228.477 256.493 222.333 258.705 212.695L275.739 138.489C279.545 121.908 302.696 120.695 308.214 136.787L332.911 208.806C336.119 218.16 346.171 223.282 355.624 220.378L428.405 198.027C444.667 193.033 457.293 212.476 446.117 225.301L396.095 282.698C389.598 290.153 390.188 301.419 397.429 308.155L453.176 360.009C465.632 371.595 455.107 392.251 438.413 388.984L363.694 374.363C353.989 372.464 344.528 378.608 342.315 388.247L325.281 462.453C321.476 479.033 298.324 480.246 292.806 464.155L268.109 392.136C264.901 382.781 254.85 377.66 245.396 380.563L172.615 402.914C156.353 407.908 143.727 388.466 154.904 375.641L204.925 318.243C211.422 310.788 210.832 299.522 203.591 292.787L147.844 240.932Z" stroke="#2B2B2B" stroke-width="1.4151"/>
<path opacity="0.310345" d="M153.762 234.521C141.93 222.299 153.521 202.221 170.022 206.358L241.852 224.363C251.444 226.767 261.214 221.126 263.928 211.617L284.25 140.408C288.918 124.05 312.101 124.05 316.77 140.408L337.092 211.617C339.806 221.126 349.575 226.767 359.168 224.363L430.997 206.358C447.498 202.221 459.09 222.298 447.257 234.521L395.75 287.724C388.871 294.829 388.871 306.111 395.75 313.216L447.257 366.419C459.09 378.641 447.498 398.719 430.997 394.582L359.168 376.577C349.575 374.173 339.806 379.814 337.092 389.323L316.77 460.532C312.101 476.89 288.918 476.89 284.25 460.532L263.928 389.323C261.214 379.814 251.444 374.173 241.852 376.577L170.022 394.582C153.521 398.719 141.93 378.641 153.762 366.419L205.27 313.216C212.148 306.111 212.148 294.829 205.27 287.724L153.762 234.521Z" stroke="#2B2B2B" stroke-width="1.4151"/>
<path opacity="0.344828" d="M159.925 228.562C148.749 215.737 161.375 196.294 177.637 201.288L246.433 222.416C255.887 225.319 265.938 220.198 269.146 210.843L292.491 142.767C298.009 126.676 321.161 127.889 324.967 144.469L341.068 214.613C343.28 224.251 352.741 230.395 362.446 228.496L433.074 214.675C449.769 211.408 460.294 232.065 447.838 243.651L395.143 292.666C387.902 299.402 387.312 310.668 393.809 318.123L441.092 372.378C452.269 385.203 439.642 404.646 423.38 399.652L354.584 378.524C345.13 375.621 335.079 380.742 331.871 390.097L308.526 458.173C303.008 474.264 279.857 473.051 276.051 456.471L259.95 386.327C257.737 376.689 248.276 370.545 238.571 372.444L167.943 386.265C151.248 389.532 140.723 368.875 153.179 357.289L205.874 308.274C213.115 301.538 213.706 290.273 207.208 282.817L159.925 228.562Z" stroke="#2B2B2B" stroke-width="1.4151"/>
<path opacity="0.37931" d="M166.305 223.064C155.815 209.671 169.441 190.916 185.42 196.754L251.059 220.738C260.347 224.132 270.653 219.544 274.346 210.37L300.443 145.542C306.796 129.762 329.852 132.185 332.785 148.942L344.834 217.779C346.539 227.52 355.666 234.151 365.457 232.762L434.648 222.949C451.491 220.561 460.92 241.739 447.875 252.658L394.285 297.511C386.701 303.858 385.522 315.077 391.62 322.862L434.714 377.877C445.204 391.269 431.577 410.025 415.599 404.186L349.96 380.202C340.672 376.808 330.366 381.397 326.673 390.571L300.575 455.398C294.222 471.179 271.166 468.756 268.233 451.999L256.185 383.162C254.48 373.421 245.353 366.79 235.562 368.179L166.371 377.991C149.528 380.38 140.099 359.201 153.144 348.283L206.734 303.43C214.317 297.083 215.497 285.863 209.399 278.078L166.305 223.064Z" stroke="#2B2B2B" stroke-width="1.4151"/>
<path opacity="0.413793" d="M172.868 218.031C163.093 204.108 177.682 186.091 193.333 192.758L255.71 219.328C264.808 223.203 275.34 219.16 279.508 210.192L308.084 148.709C315.254 133.283 338.151 136.909 340.203 153.797L348.381 221.101C349.574 230.918 358.341 238.017 368.192 237.143L435.726 231.149C452.671 229.645 460.979 251.288 447.38 261.509L393.182 302.244C385.276 308.185 383.512 319.328 389.194 327.421L428.152 382.91C437.927 396.833 423.337 414.85 407.686 408.183L345.31 381.613C336.212 377.738 325.68 381.781 321.512 390.749L292.936 452.232C285.766 467.658 262.868 464.032 260.816 447.144L252.638 379.84C251.445 370.023 242.678 362.924 232.828 363.798L165.294 369.792C148.349 371.296 140.041 349.653 153.64 339.432L207.838 298.697C215.743 292.756 217.508 281.613 211.826 273.52L172.868 218.031Z" stroke="#2B2B2B" stroke-width="1.4151"/>
<path opacity="0.448276" d="M179.583 213.467C170.55 199.052 186.062 181.824 201.343 189.3L260.371 218.182C269.254 222.528 279.983 219.042 284.615 210.305L315.393 152.243C323.361 137.213 346.037 142.033 347.203 159.004L351.704 224.565C352.382 234.431 360.765 241.98 370.648 241.622L436.32 239.246C453.321 238.631 460.485 260.679 446.369 270.174L391.843 306.853C383.638 312.373 381.292 323.408 386.543 331.788L421.437 387.474C430.47 401.889 414.957 419.117 399.677 411.641L340.648 382.759C331.766 378.412 321.037 381.899 316.405 390.636L285.626 448.698C277.659 463.728 254.982 458.908 253.817 441.936L249.315 376.376C248.638 366.51 240.254 358.961 230.372 359.319L164.699 361.695C147.699 362.31 140.535 340.261 154.65 330.766L209.177 294.087C217.382 288.568 219.728 277.533 214.477 269.153L179.583 213.467Z" stroke="#2B2B2B" stroke-width="1.4151"/>
<path opacity="0.482759" d="M186.419 209.375C178.153 194.507 194.546 178.114 209.414 186.38L265.028 217.299C273.671 222.104 284.568 219.184 289.651 210.701L322.355 156.118C331.098 141.525 353.491 147.525 353.766 164.534L354.797 228.157C354.957 238.045 362.934 246.022 372.822 246.182L436.445 247.213C453.454 247.488 459.454 269.881 444.862 278.625L390.278 311.329C381.795 316.411 378.875 327.308 383.68 335.951L414.599 391.565C422.865 406.434 406.472 422.827 391.604 414.56L335.99 383.642C327.347 378.836 316.45 381.756 311.367 390.239L278.663 444.823C269.92 459.416 247.527 453.415 247.252 436.406L246.221 372.783C246.061 362.896 238.084 354.919 228.196 354.758L164.573 353.728C147.564 353.452 141.564 331.059 156.156 322.316L210.74 289.612C219.223 284.529 222.143 273.633 217.338 264.989L186.419 209.375Z" stroke="#2B2B2B" stroke-width="1.4151"/>
<path opacity="0.517241" d="M193.348 205.755C185.872 190.474 203.1 174.962 217.515 183.995L269.669 216.675C278.049 221.926 289.084 219.581 294.603 211.375L328.956 160.307C338.451 146.192 360.499 153.356 359.884 170.356L357.659 231.863C357.301 241.746 364.85 250.129 374.716 250.807L436.118 255.023C453.09 256.188 457.91 278.865 442.88 286.832L388.501 315.659C379.763 320.29 376.277 331.019 380.623 339.902L407.673 395.186C415.15 410.467 397.921 425.979 383.506 416.946L331.352 384.266C322.973 379.015 311.938 381.361 306.418 389.566L272.066 440.634C262.571 454.749 240.522 447.585 241.137 430.585L243.363 369.078C243.72 359.195 236.172 350.812 226.306 350.134L164.903 345.918C147.932 344.753 143.112 322.076 158.142 314.109L212.521 285.282C221.258 280.651 224.744 269.922 220.398 261.039L193.348 205.755Z" stroke="#2B2B2B" stroke-width="1.4151"/>
<path opacity="0.551724" d="M200.336 202.603C193.669 186.952 211.686 172.363 225.609 182.138L274.275 216.305C282.368 221.987 293.511 220.223 299.452 212.317L335.178 164.783C345.399 151.185 367.042 159.493 365.538 176.438L360.281 235.667C359.407 245.518 366.507 254.285 376.324 255.478L435.352 262.65C452.239 264.702 455.866 287.6 440.439 294.77L386.516 319.832C377.548 324.001 373.506 334.532 377.381 343.631L400.684 398.337C407.35 413.988 389.334 428.578 375.411 418.803L326.745 384.635C318.651 378.953 307.509 380.717 301.567 388.623L265.841 436.157C255.621 449.756 233.977 441.448 235.481 424.503L240.738 365.273C241.613 355.422 234.513 346.655 224.696 345.462L165.668 338.29C148.78 336.238 145.154 313.34 160.58 306.17L214.503 281.108C223.471 276.94 227.514 266.408 223.639 257.31L200.336 202.603Z" stroke="#2B2B2B" stroke-width="1.4151"/>
<path opacity="0.586207" d="M207.356 199.917C201.517 183.939 220.273 170.313 233.665 180.803L278.835 216.185C286.621 222.283 297.84 221.104 304.187 213.521L341.014 169.52C351.933 156.475 373.111 165.904 370.723 182.747L362.666 239.557C361.277 249.348 367.908 258.475 377.649 260.18L434.169 270.073C450.925 273.006 453.349 296.062 437.568 302.414L384.34 323.842C375.167 327.535 370.578 337.841 373.972 347.13L393.664 401.023C399.503 417.001 380.747 430.628 367.355 420.138L322.185 384.755C314.399 378.657 303.18 379.836 296.833 387.42L260.006 431.421C249.087 444.466 227.909 435.037 230.297 418.194L238.354 361.384C239.743 351.592 233.112 342.466 223.371 340.761L166.851 330.868C150.095 327.935 147.671 304.879 163.452 298.526L216.68 277.099C225.853 273.405 230.442 263.1 227.048 253.811L207.356 199.917Z" stroke="#2B2B2B" stroke-width="1.4151"/>
<path opacity="0.62069" d="M214.376 197.692C209.382 181.43 228.825 168.803 241.65 179.98L283.335 216.309C290.791 222.806 302.056 222.216 308.792 214.975L346.452 174.488C358.038 162.032 378.694 172.556 375.427 189.251L364.808 243.517C362.909 253.222 369.053 262.683 378.692 264.895L432.585 277.266C449.165 281.072 450.378 304.223 434.287 309.742L381.982 327.678C372.628 330.886 367.506 340.938 370.409 350.391L386.642 403.249C391.636 419.511 372.193 432.137 359.369 420.961L317.683 384.632C310.228 378.135 298.962 378.725 292.227 385.966L254.567 426.453C242.981 438.909 222.324 428.384 225.591 411.689L236.21 357.424C238.109 347.719 231.965 338.258 222.326 336.045L168.434 323.674C151.853 319.869 150.64 296.717 166.732 291.199L219.036 273.263C228.391 270.055 233.512 260.003 230.609 250.55L214.376 197.692Z" stroke="#2B2B2B" stroke-width="1.4151"/>
<path opacity="0.655172" d="M221.371 195.918C217.235 179.417 237.312 167.825 249.534 179.658L287.764 216.669C294.869 223.548 306.15 223.548 313.255 216.669L351.485 179.658C363.707 167.825 383.784 179.417 379.648 195.918L366.711 247.532C364.306 257.124 369.947 266.894 379.456 269.608L430.624 284.21C446.982 288.879 446.982 312.062 430.624 316.73L379.456 331.333C369.947 334.046 364.306 343.816 366.711 353.409L379.648 405.022C383.784 421.523 363.707 433.115 351.485 421.282L313.255 384.271C306.15 377.393 294.869 377.393 287.764 384.271L249.534 421.282C237.312 433.115 217.235 421.523 221.371 405.022L234.309 353.409C236.713 343.816 231.072 334.046 221.563 331.333L170.395 316.73C154.037 312.062 154.037 288.879 170.395 284.21L221.563 269.608C231.072 266.894 236.713 257.124 234.309 247.532L221.371 195.918Z" stroke="#2B2B2B" stroke-width="1.4151"/>
<path opacity="0.689655" d="M228.311 194.576C225.044 177.881 245.701 167.357 257.287 179.813L292.108 217.248C298.843 224.489 310.109 225.079 317.564 218.582L356.108 184.992C368.932 173.815 388.375 186.441 383.381 202.703L368.372 251.577C365.469 261.03 370.59 271.082 379.945 274.29L428.306 290.874C444.398 296.392 443.185 319.543 426.604 323.349L376.774 334.788C367.136 337 360.991 346.461 362.89 356.166L372.709 406.341C375.976 423.036 355.32 433.561 343.733 421.105L308.912 383.67C302.177 376.429 290.911 375.838 283.456 382.336L244.913 415.926C232.088 427.103 212.645 414.476 217.639 398.214L232.648 349.341C235.552 339.887 230.43 329.836 221.076 326.628L172.714 310.043C156.622 304.525 157.836 281.374 174.416 277.568L224.246 266.13C233.885 263.917 240.029 254.456 238.13 244.751L228.311 194.576Z" stroke="#2B2B2B" stroke-width="1.4151"/>
<path opacity="0.724138" d="M235.17 193.679C232.781 176.836 253.96 167.407 264.878 180.452L296.355 218.06C302.702 225.643 313.921 226.823 321.706 220.724L360.314 190.483C373.706 179.992 392.462 193.619 386.623 209.597L369.792 255.661C366.398 264.949 370.987 275.255 380.16 278.948L425.655 297.263C441.435 303.615 439.012 326.671 422.255 329.604L373.948 338.06C364.207 339.765 357.576 348.892 358.964 358.683L365.85 407.239C368.239 424.082 347.06 433.511 336.142 420.466L304.666 382.858C298.318 375.274 287.099 374.095 279.314 380.193L240.706 410.435C227.314 420.925 208.559 407.299 214.397 391.321L231.228 345.257C234.622 335.969 230.034 325.663 220.86 321.97L175.366 303.655C159.585 297.302 162.008 274.246 178.765 271.313L227.073 262.858C236.814 261.153 243.445 252.026 242.056 242.235L235.17 193.679Z" stroke="#2B2B2B" stroke-width="1.4151"/>
<path opacity="0.758621" d="M241.921 193.202C240.418 176.257 262.061 167.949 272.281 181.548L300.494 219.085C306.436 226.991 317.578 228.756 325.672 223.073L364.104 196.091C378.027 186.316 396.043 200.906 389.377 216.556L370.974 259.758C367.099 268.856 371.142 279.388 380.11 283.557L422.693 303.348C438.12 310.518 434.493 333.416 417.606 335.468L370.99 341.132C361.174 342.325 354.074 351.092 354.948 360.943L359.1 407.717C360.604 424.662 338.96 432.97 328.74 419.371L300.527 381.833C294.585 373.928 283.443 372.163 275.349 377.845L236.917 404.828C222.995 414.603 204.978 400.013 211.645 384.362L230.047 341.16C233.922 332.062 229.879 321.53 220.912 317.362L178.328 297.57C162.902 290.4 166.528 267.503 183.416 265.451L230.031 259.786C239.848 258.594 246.947 249.826 246.073 239.976L241.921 193.202Z" stroke="#2B2B2B" stroke-width="1.4151"/>
<path opacity="0.793103" d="M248.54 193.13C247.925 176.13 269.973 168.966 279.468 183.081L304.515 220.315C310.034 228.52 321.069 230.865 329.449 225.614L367.474 201.787C381.889 192.754 399.118 208.267 391.641 223.547L371.919 263.855C367.573 272.738 371.059 283.467 379.796 288.099L419.444 309.116C434.474 317.083 429.654 339.76 412.683 340.925L367.914 343.999C358.048 344.677 350.5 353.06 350.857 362.943L352.48 407.787C353.095 424.788 331.046 431.952 321.551 417.837L296.505 380.603C290.985 372.398 279.951 370.052 271.571 375.303L233.545 399.13C219.13 408.163 201.902 392.651 209.378 377.37L229.1 337.063C233.447 328.18 229.961 317.451 221.223 312.819L181.576 291.802C166.545 283.834 171.365 261.158 188.337 259.992L233.105 256.918C242.971 256.241 250.52 247.857 250.162 237.975L248.54 193.13Z" stroke="#2B2B2B" stroke-width="1.4151"/>
<path opacity="0.827586" d="M255.004 193.45C255.279 176.441 277.672 170.441 286.416 185.034L308.408 221.739C313.49 230.222 324.387 233.142 333.031 228.337L370.429 207.545C385.297 199.279 401.69 215.672 393.424 230.54L372.632 267.939C367.827 276.582 370.747 287.479 379.23 292.561L415.936 314.554C430.528 323.297 424.528 345.69 407.519 345.966L364.735 346.659C354.847 346.819 346.87 354.796 346.71 364.684L346.017 407.468C345.741 424.477 323.348 430.477 314.605 415.885L292.613 379.179C287.53 370.696 276.633 367.776 267.99 372.581L230.591 393.373C215.723 401.639 199.33 385.246 207.596 370.378L228.388 332.979C233.193 324.336 230.273 313.439 221.79 308.357L185.085 286.364C170.492 277.621 176.492 255.228 193.501 254.953L236.286 254.26C246.173 254.099 254.15 246.122 254.311 236.234L255.004 193.45Z" stroke="#2B2B2B" stroke-width="1.4151"/>
<path opacity="0.862069" d="M261.289 194.145C262.455 177.173 285.131 172.353 293.099 187.384L312.164 223.349C316.795 232.086 327.524 235.572 336.407 231.226L372.971 213.336C388.251 205.859 403.764 223.087 394.731 237.503L373.117 271.996C367.866 280.376 370.211 291.411 378.417 296.93L412.192 319.65C426.307 329.145 419.143 351.193 402.143 350.578L361.464 349.107C351.581 348.749 343.197 356.298 342.52 366.164L339.731 406.774C338.566 423.745 315.89 428.565 307.922 413.535L288.857 377.57C284.225 368.833 273.496 365.347 264.613 369.693L228.05 387.583C212.769 395.059 197.257 377.831 206.29 363.416L227.904 328.923C233.155 320.543 230.809 309.508 222.604 303.988L188.829 281.269C174.714 271.774 181.878 249.725 198.878 250.34L239.557 251.812C249.44 252.169 257.823 244.621 258.501 234.755L261.289 194.145Z" stroke="#2B2B2B" stroke-width="1.4151"/>
<path opacity="0.896552" d="M267.375 195.196C269.427 178.308 292.325 174.682 299.495 190.108L315.773 225.132C319.941 234.1 330.473 238.143 339.571 234.267L375.103 219.132C390.754 212.465 405.344 230.482 395.569 244.405L373.377 276.014C367.695 284.107 369.459 295.25 377.365 301.191L408.238 324.395C421.837 334.616 413.529 356.259 396.584 354.755L358.114 351.341C348.263 350.467 339.496 357.566 338.303 367.383L333.645 405.723C331.593 422.61 308.695 426.237 301.525 410.81L285.247 375.786C281.079 366.819 270.547 362.776 261.449 366.651L225.917 381.786C210.266 388.453 195.676 370.436 205.451 356.514L227.643 324.905C233.326 316.811 231.561 305.669 223.655 299.727L192.782 276.523C179.183 266.302 187.491 244.659 204.436 246.163L242.906 249.577C252.757 250.452 261.524 243.352 262.717 233.535L267.375 195.196Z" stroke="#2B2B2B" stroke-width="1.4151"/>
<path opacity="0.931035" d="M273.242 196.584C276.175 179.827 299.231 177.404 305.584 193.185L319.229 227.079C322.922 236.252 333.228 240.841 342.516 237.447L376.834 224.907C392.813 219.069 406.439 237.824 395.949 251.217L373.418 279.98C367.32 287.765 368.499 298.985 376.083 305.332L404.102 328.782C417.147 339.701 407.718 360.88 390.875 358.491L354.699 353.36C344.908 351.972 335.781 358.603 334.076 368.344L327.777 404.334C324.844 421.091 301.788 423.514 295.435 407.733L281.79 373.839C278.097 364.666 267.792 360.077 258.503 363.471L224.185 376.011C208.207 381.849 194.58 363.094 205.07 349.701L227.601 320.938C233.699 313.153 232.52 301.933 224.936 295.586L196.918 272.136C183.872 261.217 193.302 240.038 210.145 242.427L246.32 247.558C256.111 248.946 265.238 242.315 266.943 232.574L273.242 196.584Z" stroke="#2B2B2B" stroke-width="1.4151"/>
<path opacity="0.965517" d="M278.873 198.29C282.679 181.71 305.83 180.497 311.348 196.588L322.524 229.178C325.732 238.533 335.783 243.654 345.237 240.751L378.172 230.637C394.434 225.643 407.06 245.085 395.884 257.91L373.248 283.884C366.75 291.339 367.341 302.605 374.582 309.34L399.809 332.806C412.265 344.392 401.74 365.048 385.045 361.781L351.233 355.165C341.528 353.266 332.067 359.41 329.854 369.048L322.146 402.628C318.34 419.209 295.189 420.422 289.671 404.33L278.495 371.74C275.287 362.386 265.235 357.264 255.782 360.167L222.847 370.282C206.585 375.276 193.958 355.833 205.135 343.008L227.771 317.034C234.268 309.579 233.678 298.313 226.437 291.578L201.21 268.113C188.754 256.526 199.279 235.87 215.974 239.137L249.786 245.754C259.491 247.653 268.952 241.509 271.164 231.87L278.873 198.29Z" stroke="#2B2B2B" stroke-width="1.4151"/>
<path d="M284.25 200.292C288.919 183.934 312.102 183.934 316.77 200.292L325.653 231.419C328.367 240.928 338.137 246.569 347.73 244.164L379.127 236.294C395.628 232.158 407.22 252.235 395.387 264.457L372.873 287.713C365.994 294.818 365.994 306.1 372.873 313.205L395.387 336.461C407.22 348.683 395.628 368.76 379.127 364.624L347.73 356.754C338.137 354.349 328.367 359.99 325.653 369.499L316.77 400.626C312.102 416.984 288.919 416.984 284.25 400.626L275.367 369.499C272.654 359.99 262.884 354.349 253.291 356.754L221.894 364.624C205.392 368.76 193.801 348.683 205.634 336.461L228.148 313.205C235.027 306.1 235.027 294.818 228.148 287.713L205.634 264.457C193.801 252.235 205.393 232.158 221.894 236.294L253.291 244.164C262.884 246.569 272.654 240.928 275.367 231.419L284.25 200.292Z" stroke="#2B2B2B" stroke-width="1.4151"/>
</svg>
